<?xml version="1.0" standalone="no"?>
<!DOCTYPE svg PUBLIC "-//W3C//DTD SVG 20010904//EN"
 "http://www.w3.org/TR/2001/REC-SVG-20010904/DTD/svg10.dtd">
<svg version="1.0" xmlns="http://www.w3.org/2000/svg"
 width="300.000000pt" height="300.000000pt" viewBox="0 0 300.000000 300.000000"
 preserveAspectRatio="xMidYMid meet">
<metadata>
Created by potrace 1.10, written by Peter Selinger 2001-2011
</metadata>
<g transform="translate(0.000000,300.000000) scale(0.100000,-0.100000)"
fill="#000000" stroke="none">
<path d="M1589 2876 c-2 -2 -31 -6 -64 -10 -103 -10 -186 -35 -290 -86 -225
-110 -405 -333 -462 -569 -23 -99 -24 -107 -24 -221 0 -114 3 -142 17 -147 5
-2 9 60 10 145 1 129 4 158 28 237 15 50 31 94 37 100 5 5 9 17 9 27 0 10 5
18 10 18 6 0 10 6 10 13 0 7 17 37 37 67 124 186 307 319 508 370 163 42 396
33 465 -18 54 -41 55 -54 4 -249 -75 -290 -78 -303 -65 -316 8 -8 60 -12 154
-13 78 -1 158 -4 177 -8 107 -23 268 -90 319 -135 13 -12 27 -21 32 -21 4 0
42 -34 84 -76 205 -202 296 -472 254 -747 -12 -77 -26 -113 -55 -138 -32 -28
-63 -28 -157 -3 -199 54 -370 94 -375 89 -3 -3 -2 -8 1 -11 12 -12 392 -114
448 -120 89 -10 134 26 154 121 43 203 17 404 -75 590 -129 259 -388 446 -670
482 -93 12 -257 6 -266 -9 -10 -16 -24 3 -15 20 18 35 121 431 121 467 0 70
-42 113 -125 130 -80 15 -227 29 -236 21z"/>
<path d="M1535 2644 c-316 -66 -513 -269 -558 -575 -14 -100 2 -220 43 -325
39 -97 39 -128 -1 -165 -38 -36 -61 -36 -181 -5 -51 14 -118 32 -148 40 -301
79 -300 79 -322 59 -18 -16 -20 -26 -14 -93 18 -230 157 -437 358 -534 194
-93 386 -97 580 -12 54 23 94 20 123 -8 44 -44 42 -80 -19 -301 -37 -134 -86
-324 -86 -333 0 -94 343 -12 493 119 145 126 236 341 224 529 -7 94 -24 172
-56 240 -26 57 -26 94 -1 131 29 40 73 46 168 21 230 -61 382 -101 424 -113
43 -12 49 -11 69 7 19 17 21 26 15 94 -15 194 -118 379 -266 480 -117 79 -222
117 -347 125 -100 7 -176 -5 -296 -47 -98 -34 -125 -32 -164 10 -22 24 -24 33
-19 77 3 27 15 84 27 125 12 41 29 107 39 145 10 39 30 116 45 173 26 99 27
104 10 122 -14 15 -30 20 -69 19 -28 -1 -60 -3 -71 -5z m135 -23 c0 -3 -5 -22
-11 -41 -5 -19 -12 -44 -14 -55 -3 -11 -32 -119 -65 -240 -33 -121 -60 -231
-60 -245 0 -39 37 -90 77 -106 39 -17 93 -12 129 11 18 12 78 31 109 36 6 1
21 6 34 11 43 16 204 12 271 -7 3 -1 19 -5 35 -10 117 -32 257 -132 328 -234
33 -48 86 -153 94 -186 24 -102 38 -225 25 -225 -4 0 -81 20 -172 45 -432 119
-417 116 -468 85 -59 -36 -77 -124 -37 -186 12 -18 31 -78 36 -109 1 -5 6 -21
11 -34 16 -43 12 -204 -7 -271 -1 -3 -5 -18 -10 -35 -10 -38 -58 -137 -87
-178 -28 -42 -114 -127 -156 -156 -39 -27 -147 -81 -177 -88 -102 -24 -225
-38 -225 -25 0 4 14 57 31 117 16 61 32 117 33 125 2 8 10 35 17 60 7 25 13
50 15 55 1 6 13 53 28 105 31 114 32 135 6 178 -36 59 -124 77 -186 37 -18
-12 -78 -31 -109 -36 -5 -1 -21 -6 -34 -11 -43 -16 -197 -12 -271 7 -153 39
-280 127 -369 253 -27 38 -81 147 -88 177 -24 100 -37 225 -25 225 4 0 131
-34 282 -75 151 -41 286 -75 300 -75 39 0 90 37 106 77 17 39 12 93 -11 129
-12 18 -35 90 -34 104 0 3 -5 18 -11 34 -17 47 -15 205 5 276 1 3 5 19 10 35
31 117 136 261 243 335 39 26 147 80 177 87 93 23 225 37 225 24z"/>
<path d="M1442 1610 c-44 -27 -65 -64 -66 -115 0 -38 5 -50 33 -79 42 -44 89
-54 138 -29 68 34 96 106 65 169 -28 60 -115 87 -170 54z m97 -24 c34 -18 61
-57 61 -89 0 -12 -13 -38 -29 -57 -24 -29 -35 -35 -71 -35 -35 0 -47 6 -72 34
-25 28 -29 39 -24 70 6 41 54 91 87 91 11 0 33 -7 48 -14z"/>
<path d="M209 1935 c-28 -15 -54 -60 -64 -110 -15 -76 -25 -203 -20 -244 4
-25 8 -62 11 -81 12 -89 39 -173 84 -265 126 -257 388 -446 670 -482 93 -12
257 -6 266 9 3 5 11 5 17 2 7 -4 8 -3 4 2 -5 5 -75 9 -155 10 -115 1 -164 6
-224 22 -371 101 -630 421 -643 797 -4 109 15 243 40 281 22 34 66 54 105 47
19 -2 73 -16 120 -30 47 -13 111 -31 143 -39 31 -8 85 -21 118 -29 58 -14 81
-14 66 1 -14 14 -434 124 -472 123 -22 0 -52 -6 -66 -14z"/>
<path d="M2224 1027 c1 -116 -3 -157 -21 -223 -123 -450 -546 -722 -993 -638
-76 15 -100 26 -120 58 -15 24 -15 85 0 136 6 19 31 113 56 209 40 156 47 197
28 178 -13 -13 -124 -433 -124 -470 0 -95 48 -126 235 -148 73 -8 108 -7 218
7 375 49 695 374 744 754 13 102 6 255 -12 270 -8 7 -11 -29 -11 -133z"/>
</g>
</svg>
